<?xml version="1.0" encoding="utf-8"?>
<!-- Generator: Adobe Illustrator 18.1.1, SVG Export Plug-In . SVG Version: 6.00 Build 0)  -->
<svg version="1.1" id="Layer_1" xmlns="http://www.w3.org/2000/svg" xmlns:xlink="http://www.w3.org/1999/xlink" x="0px" y="0px"
	 viewBox="0 0 139.1 50.6" enable-background="new 0 0 139.1 50.6" xml:space="preserve">
<g>
	<path fill="#595A5C" d="M90.6,25.3c0-6.8,5.5-12.3,12.3-12.3c6.8,0,12.3,5.5,12.3,12.3s-5.5,12.3-12.3,12.3
		C96.1,37.6,90.6,32.1,90.6,25.3z M102.9,35.9c5.8,0,10.6-4.7,10.6-10.6s-4.7-10.6-10.6-10.6s-10.6,4.7-10.6,10.6
		S97,35.9,102.9,35.9z"/>
	<path fill="#595A5C" d="M131.5,27.3c3.7-0.1,6.7-3.2,6.7-6.9c0-3.8-3.1-6.9-6.9-6.9h-1.6v0h-9.9v23.7h1.8v-9.8h7.7l7.5,9.8h2.2
		L131.5,27.3z M122.5,15.1L122.5,15.1l8.8,0c3,0,5.3,2.3,5.3,5.3s-2.4,5.3-5.3,5.3h-9.7V15.1H122.5z"/>
	<path fill="#595A5C" d="M86.5,32.6c-1.9,2-4.6,3.3-7.7,3.3c-5.8,0-10.6-4.7-10.6-10.6S73,14.7,78.9,14.7c3,0,5.7,1.3,7.7,3.3
		l1.5-0.9c-2.2-2.5-5.5-4.1-9.1-4.1c-6.8,0-12.3,5.5-12.3,12.3s5.5,12.3,12.3,12.3c3.6,0,6.9-1.6,9.1-4.1L86.5,32.6z"/>
	<path fill="#EF4237" d="M42.2,39.4L23.4,50.3c-0.7,0.4-1.6,0.4-2.3,0L1.2,38.8c-0.7-0.4-1.2-1.2-1.2-2v-23c0-0.8,0.4-1.6,1.2-2
		L21.1,0.3c0.7-0.4,1.6-0.4,2.3,0l18.8,10.9c1,0.6,1,2,0,2.6L35,17.9c-0.5,0.3-1,0.3-1.5,0L23.4,12c-0.7-0.4-1.6-0.4-2.3,0l-9.7,5.6
		c-0.7,0.4-1.2,1.2-1.2,2v11.3c0,0.8,0.4,1.6,1.2,2l9.7,5.6c0.7,0.4,1.6,0.4,2.3,0l10.2-5.9c0.5-0.3,1-0.3,1.5,0l7.2,4.1
		C43.2,37.4,43.2,38.8,42.2,39.4z"/>
	<polygon fill="#EF4237" points="29.6,25.3 43.8,17.1 43.8,33.5 	"/>
	<g>
		<defs>
			<path id="SVGID_1_" d="M42.2,39.4L23.4,50.3c-0.7,0.4-1.6,0.4-2.3,0L1.2,38.8c-0.7-0.4-1.2-1.2-1.2-2v-23c0-0.8,0.4-1.6,1.2-2
				L21.1,0.3c0.7-0.4,1.6-0.4,2.3,0l18.8,10.9c1,0.6,1,2,0,2.6L35,17.9c-0.5,0.3-1,0.3-1.5,0L23.4,12c-0.7-0.4-1.6-0.4-2.3,0
				l-9.7,5.6c-0.7,0.4-1.2,1.2-1.2,2v11.3c0,0.8,0.4,1.6,1.2,2l9.7,5.6c0.7,0.4,1.6,0.4,2.3,0l10.2-5.9c0.5-0.3,1-0.3,1.5,0l7.2,4.1
				C43.2,37.4,43.2,38.8,42.2,39.4z"/>
		</defs>
		<clipPath id="SVGID_2_">
			<use xlink:href="#SVGID_1_"  overflow="visible"/>
		</clipPath>
		<polygon opacity="0.45" clip-path="url(#SVGID_2_)" fill="#010101" points="-0.7,-1.5 47.7,-0.3 47.7,19.3 11.8,19.3 -0.7,12 		
			"/>
	</g>
</g>
</svg>
